<svg xmlns="http://www.w3.org/2000/svg" width="21.19" height="17.802" viewBox="0 0 21.19 17.802"><g id="b" transform="translate(-40.125 -0.125)"><g id="c" transform="translate(40.5 0.5)"><g id="Group_497" data-name="Group 497" transform="translate(0 0)"><path id="Path_529" data-name="Path 529" d="M4.766,16.586A4.252,4.252,0,0,1,.51,12.33V8.07H20.947v4.26a4.252,4.252,0,0,1-4.256,4.256" transform="translate(-0.507 -5.515)" fill="none" stroke="#fff" stroke-miterlimit="10" stroke-width="0.75"></path><line id="Line_58" data-name="Line 58" x1="11.921" transform="translate(4.26 11.071)" fill="none" stroke="#fff" stroke-miterlimit="10" stroke-width="0.75"></line><path id="Path_530" data-name="Path 530" d="M20.94,19.77v8.678a1.954,1.954,0,0,1-.5,1.323,1.63,1.63,0,0,1-1.2.547H2.2A1.63,1.63,0,0,1,1,29.771a1.954,1.954,0,0,1-.5-1.323V19.77" transform="translate(-0.5 -13.266)" fill="none" stroke="#fff" stroke-miterlimit="10" stroke-width="0.75"></path><path id="Path_531" data-name="Path 531" d="M26.517,3.055V1.691A1.187,1.187,0,0,0,25.325.5H18.851A1.187,1.187,0,0,0,17.66,1.691V3.055" transform="translate(-11.868 -0.5)" fill="none" stroke="#fff" stroke-miterlimit="10" stroke-width="0.75"></path><line id="Line_59" data-name="Line 59" y2="2.386" transform="translate(4.837 9.879)" fill="none" stroke="#fff" stroke-linecap="round" stroke-miterlimit="10" stroke-width="0.75"></line><line id="Line_60" data-name="Line 60" y2="2.386" transform="translate(15.31 9.879)" fill="none" stroke="#fff" stroke-linecap="round" stroke-miterlimit="10" stroke-width="0.75"></line></g></g></g></svg>