<svg xmlns="http://www.w3.org/2000/svg" xmlns:xlink="http://www.w3.org/1999/xlink" id="Group_506" data-name="Group 506" width="51.449" height="50" viewBox="0 0 51.449 50"><defs><clipPath id="clip-path"><rect id="Rectangle_303" data-name="Rectangle 303" width="51.449" height="50" fill="none"></rect></clipPath><clipPath id="clip-path-2"><path id="Path_549" data-name="Path 549" d="M5,1A4,4,0,0,0,1,5V45a4,4,0,0,0,4,4H35a4,4,0,0,0,4-4,11,11,0,0,1,0-22V11H29V1Z" fill="none"></path></clipPath></defs><g id="Group_501" data-name="Group 501"><g id="Group_500" data-name="Group 500" clip-path="url(#clip-path)"><path id="Path_546" data-name="Path 546" d="M28,34A11,11,0,0,1,39,23V11H29V1H5A4,4,0,0,0,1,5V45a4,4,0,0,0,4,4H35a4,4,0,0,0,4-4A11,11,0,0,1,28,34" fill="#fff"></path></g></g><g id="Group_503" data-name="Group 503"><g id="Group_502" data-name="Group 502" clip-path="url(#clip-path-2)"><path id="Path_547" data-name="Path 547" d="M29,1H5A4,4,0,0,0,1,5V45a4,4,0,0,0,4,4H35a4,4,0,0,0,4-4V11H29Z" fill="#fff"></path><path id="Path_548" data-name="Path 548" d="M29,1H5A4,4,0,0,0,1,5V45a4,4,0,0,0,4,4H35a4,4,0,0,0,4-4V11H29Z" fill="none" stroke="#bbbec0" stroke-linecap="round" stroke-linejoin="round" stroke-width="2"></path><rect id="Rectangle_304" data-name="Rectangle 304" width="22" height="0.1" transform="translate(9 16.95)" fill="#fff"></rect><rect id="Rectangle_305" data-name="Rectangle 305" width="22" height="0.1" transform="translate(9 16.95)" fill="none" stroke="#bbbec0" stroke-linecap="round" stroke-linejoin="round" stroke-width="2"></rect><rect id="Rectangle_306" data-name="Rectangle 306" width="22" height="0.1" transform="translate(9 22.95)" fill="#fff"></rect><rect id="Rectangle_307" data-name="Rectangle 307" width="22" height="0.1" transform="translate(9 22.95)" fill="none" stroke="#bbbec0" stroke-linecap="round" stroke-linejoin="round" stroke-width="2"></rect><rect id="Rectangle_308" data-name="Rectangle 308" width="22" height="0.1" transform="translate(9 28.95)" fill="#fff"></rect><rect id="Rectangle_309" data-name="Rectangle 309" width="22" height="0.1" transform="translate(9 28.95)" fill="none" stroke="#bbbec0" stroke-linecap="round" stroke-linejoin="round" stroke-width="2"></rect><rect id="Rectangle_310" data-name="Rectangle 310" width="14" height="0.1" transform="translate(9 34.95)" fill="#fff"></rect><rect id="Rectangle_311" data-name="Rectangle 311" width="14" height="0.1" transform="translate(9 34.95)" fill="none" stroke="#bbbec0" stroke-linecap="round" stroke-linejoin="round" stroke-width="2"></rect></g></g><g id="Group_505" data-name="Group 505"><g id="Group_504" data-name="Group 504" clip-path="url(#clip-path)"><path id="Path_550" data-name="Path 550" d="M28,34A11,11,0,0,1,39,23V11H29V1H5A4,4,0,0,0,1,5V45a4,4,0,0,0,4,4H35a4,4,0,0,0,4-4A11,11,0,0,1,28,34Z" fill="none" stroke="#bbbec0" stroke-linecap="round" stroke-linejoin="round" stroke-width="2"></path><path id="Path_551" data-name="Path 551" d="M29,1V11H39Z" fill="#fff"></path><path id="Path_552" data-name="Path 552" d="M29,1V11H39Z" fill="none" stroke="#bbbec0" stroke-linecap="round" stroke-linejoin="round" stroke-width="2"></path><path id="Path_553" data-name="Path 553" d="M39,23A11,11,0,1,1,28,34,11,11,0,0,1,39,23" fill="#159794"></path><rect id="Rectangle_312" data-name="Rectangle 312" width="0.099" height="4.556" transform="translate(46.743 41.813) rotate(-45)" fill="none" stroke="#159794" stroke-linecap="round" stroke-miterlimit="10" stroke-width="2"></rect><rect id="Rectangle_313" data-name="Rectangle 313" width="0.1" height="8" transform="translate(38.95 30)" fill="none" stroke="#fff" stroke-linecap="round" stroke-miterlimit="10" stroke-width="2"></rect><rect id="Rectangle_314" data-name="Rectangle 314" width="0.1" height="4" transform="translate(34.95 34)" fill="none" stroke="#fff" stroke-linecap="round" stroke-miterlimit="10" stroke-width="2"></rect><rect id="Rectangle_315" data-name="Rectangle 315" width="0.1" height="6" transform="translate(42.95 32)" fill="none" stroke="#fff" stroke-linecap="round" stroke-miterlimit="10" stroke-width="2"></rect></g></g></svg>