<svg xmlns="http://www.w3.org/2000/svg" xmlns:xlink="http://www.w3.org/1999/xlink" width="48.492" height="47.472" viewBox="0 0 48.492 47.472"><defs><clipPath id="clip-path"><rect id="Rectangle_269" data-name="Rectangle 269" width="48.492" height="47.472" fill="none"></rect></clipPath></defs><g id="Group_451" data-name="Group 451" transform="translate(0 0)"><rect id="Rectangle_267" data-name="Rectangle 267" width="14.215" height="14.215" transform="translate(33.476 0.801)" fill="#fff"></rect><g id="Group_450" data-name="Group 450" transform="translate(0 0)"><g id="Group_449" data-name="Group 449" clip-path="url(#clip-path)"><rect id="Rectangle_268" data-name="Rectangle 268" width="14.215" height="14.215" transform="translate(33.476 0.801)" fill="none" stroke="#c8cacc" stroke-miterlimit="10" stroke-width="2"></rect><path id="Path_513" data-name="Path 513" d="M15.215,47.627a7.108,7.108,0,1,1-7.108-7.108,7.108,7.108,0,0,1,7.108,7.108" transform="translate(-0.199 -8.064)" fill="#fff"></path><path id="Path_514" data-name="Path 514" d="M15.215,47.627a7.108,7.108,0,1,1-7.108-7.108A7.108,7.108,0,0,1,15.215,47.627Z" transform="translate(-0.199 -8.064)" fill="none" stroke="#c8cacc" stroke-miterlimit="10" stroke-width="2"></path><path id="Path_515" data-name="Path 515" d="M33.894,49.426H19.679a.045.045,0,0,1-.045-.044.044.044,0,0,1,.045-.044H33.894a.044.044,0,0,1,.044.044A.044.044,0,0,1,33.894,49.426Z" transform="translate(-3.907 -9.819)" fill="none" stroke="#c8cacc" stroke-miterlimit="10" stroke-width="2"></path><path id="Path_516" data-name="Path 516" d="M50.656,37.537a.044.044,0,0,1-.044-.044V23.277a.044.044,0,0,1,.088,0V37.493A.044.044,0,0,1,50.656,37.537Z" transform="translate(-10.072 -4.624)" fill="none" stroke="#c8cacc" stroke-miterlimit="10" stroke-width="2"></path><path id="Path_517" data-name="Path 517" d="M13.9,31.279a.044.044,0,0,1-.044-.044A21.392,21.392,0,0,1,35.221,9.867a.044.044,0,0,1,0,.089A21.3,21.3,0,0,0,13.942,31.235.044.044,0,0,1,13.9,31.279Z" transform="translate(-2.757 -1.964)" fill="none" stroke="#c8cacc" stroke-miterlimit="10" stroke-width="2"></path><path id="Path_518" data-name="Path 518" d="M31.88,52.765a.044.044,0,0,1-.031-.075l4.411-4.411-4.411-4.411a.044.044,0,1,1,.062-.062l4.442,4.442a.044.044,0,0,1,0,.062l-4.442,4.442A.044.044,0,0,1,31.88,52.765Z" transform="translate(-6.335 -8.715)" fill="none" stroke="#c8cacc" stroke-miterlimit="10" stroke-width="2"></path><path id="Path_519" data-name="Path 519" d="M53.995,27.763a.044.044,0,0,1-.031-.013l-4.411-4.411-4.411,4.411a.045.045,0,0,1-.062,0,.044.044,0,0,1,0-.062l4.442-4.442a.044.044,0,0,1,.062,0l4.442,4.442a.044.044,0,0,1-.031.075Z" transform="translate(-8.968 -4.624)" fill="none" stroke="#c8cacc" stroke-miterlimit="10" stroke-width="2"></path><path id="Path_520" data-name="Path 520" d="M13.118,35.225l-.011,0a.043.043,0,0,1-.027-.02L9.939,29.762a.045.045,0,0,1,.016-.061.044.044,0,0,1,.06.016l3.12,5.4L18.536,32a.043.043,0,0,1,.061.015.045.045,0,0,1-.016.061L13.14,35.219A.037.037,0,0,1,13.118,35.225Z" transform="translate(-1.977 -5.91)" fill="none" stroke="#c8cacc" stroke-miterlimit="10" stroke-width="2"></path><path id="Path_521" data-name="Path 521" d="M55.953,47.627a7.108,7.108,0,1,1-7.108-7.108,7.108,7.108,0,0,1,7.108,7.108" transform="translate(-8.306 -8.064)" fill="#08a6a5"></path></g></g></g></svg>