<svg xmlns="http://www.w3.org/2000/svg" xmlns:xlink="http://www.w3.org/1999/xlink" width="80.792" height="80.792" viewBox="0 0 80.792 80.792"><defs><clipPath id="clip-path"><rect id="Rectangle_294" data-name="Rectangle 294" width="80.792" height="80.792" fill="none" stroke="#fff" stroke-width="4"></rect></clipPath></defs><g id="Group_518" data-name="Group 518" clip-path="url(#clip-path)"><path id="Path_556" data-name="Path 556" d="M79.17,40.085A39.085,39.085,0,1,1,40.085,1,39.086,39.086,0,0,1,79.17,40.085Z" transform="translate(0.31 0.31)" fill="none" stroke="#fff" stroke-miterlimit="10" stroke-width="4"></path><path id="Path_557" data-name="Path 557" d="M67.086,37.771A29.314,29.314,0,1,1,37.771,8.457,29.318,29.318,0,0,1,67.086,37.771Z" transform="translate(2.624 2.624)" fill="none" stroke="#fff" stroke-miterlimit="10" stroke-width="4"></path><path id="Path_558" data-name="Path 558" d="M24.912,39.4a5.816,5.816,0,0,0,5.815,5.818h3.878a5.816,5.816,0,1,0,0-11.632H30.727a5.816,5.816,0,0,1,0-11.632h3.878a5.811,5.811,0,0,1,5.815,5.816" transform="translate(7.729 6.811)" fill="none" stroke="#fff" stroke-miterlimit="10" stroke-width="4"></path><line id="Line_62" data-name="Line 62" y1="4.654" transform="translate(40.396 24.11)" fill="none" stroke="#fff" stroke-miterlimit="10" stroke-width="4"></line><line id="Line_63" data-name="Line 63" y1="4.653" transform="translate(40.396 52.029)" fill="none" stroke="#fff" stroke-miterlimit="10" stroke-width="4"></line></g></svg>