<svg xmlns="http://www.w3.org/2000/svg" xmlns:xlink="http://www.w3.org/1999/xlink" width="48.175" height="70.126" viewBox="0 0 48.175 70.126"><defs><clipPath id="clip-path"><rect id="Rectangle_292" data-name="Rectangle 292" width="48.175" height="70.126" transform="translate(0 0.001)" fill="none" stroke="#fff" stroke-linecap="round" stroke-width="4"></rect></clipPath></defs><g id="Group_514" data-name="Group 514" transform="translate(0 -0.001)"><g id="Group_513" data-name="Group 513" clip-path="url(#clip-path)"><path id="Path_546" data-name="Path 546" d="M37.406,24.051A17.528,17.528,0,0,0,47.175,8.393a2.684,2.684,0,0,0-2.68-2.681H40.917" fill="none" stroke="#fff" stroke-linecap="round" stroke-miterlimit="10" stroke-width="4"></path><path id="Path_547" data-name="Path 547" d="M10.769,24.051A17.529,17.529,0,0,1,1,8.393,2.682,2.682,0,0,1,3.68,5.712H7.258" fill="none" stroke="#fff" stroke-linecap="round" stroke-miterlimit="10" stroke-width="4"></path><rect id="Rectangle_290" data-name="Rectangle 290" width="39.103" height="4.888" transform="translate(4.536 64.239)" fill="none" stroke="#fff" stroke-linecap="round" stroke-miterlimit="10" stroke-width="4"></rect><rect id="Rectangle_291" data-name="Rectangle 291" width="31.797" height="17.451" transform="translate(8.19 46.788)" fill="none" stroke="#fff" stroke-linecap="round" stroke-miterlimit="10" stroke-width="4"></rect><path id="Path_548" data-name="Path 548" d="M28.362,35.025c.152-.069.3-.147.448-.227,7-3.673,12.108-15.305,12.108-29.085V1H7.256V5.713c0,13.78,5.108,25.412,12.108,29.085.148.08.3.158.448.227a4.495,4.495,0,0,1-2.238,8.392,2.359,2.359,0,0,0-2.359,2.359v1.011H32.959V45.776A2.359,2.359,0,0,0,30.6,43.417a4.495,4.495,0,0,1-2.238-8.392Z" fill="none" stroke="#fff" stroke-linecap="round" stroke-miterlimit="10" stroke-width="4"></path><path id="Path_549" data-name="Path 549" d="M12.147,5.887a40.977,40.977,0,0,0,3.664,17.66" fill="none" stroke="#fff" stroke-linecap="round" stroke-miterlimit="10" stroke-width="4"></path></g></g></svg>