<svg xmlns="http://www.w3.org/2000/svg" xmlns:xlink="http://www.w3.org/1999/xlink" width="70.126" height="70.126" viewBox="0 0 70.126 70.126"><defs><clipPath id="clip-path"><rect id="Rectangle_293" data-name="Rectangle 293" width="70.126" height="70.126" fill="none" stroke="#fff" stroke-linecap="round" stroke-width="4"></rect></clipPath></defs><g id="Group_517" data-name="Group 517" transform="translate(0 0)"><g id="Group_516" data-name="Group 516" transform="translate(0 0)" clip-path="url(#clip-path)"><path id="Path_550" data-name="Path 550" d="M31.161,27.483V38.125H41.8" transform="translate(25.185 22.212)" fill="none" stroke="#fff" stroke-linecap="round" stroke-linejoin="round" stroke-width="4"></path><path id="Path_551" data-name="Path 551" d="M1.736,5.414H12.377V16.055" transform="translate(1.403 4.375)" fill="none" stroke="#fff" stroke-linecap="round" stroke-linejoin="round" stroke-width="4"></path><path id="Path_552" data-name="Path 552" d="M46.824,59.528A33.256,33.256,0,0,0,12.175,3.66" transform="translate(9.84 0.808)" fill="none" stroke="#fff" stroke-linecap="round" stroke-linejoin="round" stroke-width="4"></path><path id="Path_553" data-name="Path 553" d="M12.654,5.414A33.256,33.256,0,0,0,47.3,61.282" transform="translate(0.808 4.375)" fill="none" stroke="#fff" stroke-linecap="round" stroke-linejoin="round" stroke-width="4"></path><path id="Path_554" data-name="Path 554" d="M25.931,47.073s14.632-6.191,14.632-18.623V13.819A31.218,31.218,0,0,0,25.931,9.828,31.218,31.218,0,0,0,11.3,13.819V28.451C11.3,40.882,25.931,47.073,25.931,47.073Z" transform="translate(9.132 7.943)" fill="none" stroke="#fff" stroke-linecap="round" stroke-linejoin="round" stroke-width="4"></path><path id="Path_555" data-name="Path 555" d="M30.94,17.184l-5.32,5.322L20.3,27.826l-5.32-5.32" transform="translate(12.105 13.888)" fill="none" stroke="#fff" stroke-linecap="round" stroke-linejoin="round" stroke-width="4"></path></g></g></svg>