<svg xmlns="http://www.w3.org/2000/svg" xmlns:xlink="http://www.w3.org/1999/xlink" width="35.391" height="48.167" viewBox="0 0 35.391 48.167"><defs><clipPath id="clip-path"><rect id="Rectangle_270" data-name="Rectangle 270" width="35.391" height="48.167" fill="none"></rect></clipPath></defs><g id="Group_456" data-name="Group 456" transform="translate(0 0)"><path id="Path_522" data-name="Path 522" d="M18.052,53.428,1.73,41.873,18.052,30.318,34.373,41.873Z" transform="translate(-0.356 -6.236)" fill="#fff"></path><g id="Group_453" data-name="Group 453" transform="translate(0 -0.001)"><g id="Group_452" data-name="Group 452" clip-path="url(#clip-path)"><path id="Path_523" data-name="Path 523" d="M18.052,53.428,1.73,41.873,18.052,30.318,34.373,41.873Z" transform="translate(-0.356 -6.235)" fill="none" stroke="#c8cacc" stroke-miterlimit="10" stroke-width="2"></path></g></g><path id="Path_524" data-name="Path 524" d="M18.052,38.882,1.73,27.327,18.052,15.771,34.373,27.327Z" transform="translate(-0.356 -3.244)" fill="#08a6a5"></path><path id="Path_525" data-name="Path 525" d="M18.052,24.335,1.73,12.78,18.052,1.225,34.373,12.78Z" transform="translate(-0.356 -0.252)" fill="#fff"></path><g id="Group_455" data-name="Group 455" transform="translate(0 -0.001)"><g id="Group_454" data-name="Group 454" clip-path="url(#clip-path)"><path id="Path_526" data-name="Path 526" d="M18.052,24.335,1.73,12.78,18.052,1.225,34.373,12.78Z" transform="translate(-0.356 -0.251)" fill="none" stroke="#c8cacc" stroke-miterlimit="10" stroke-width="2"></path></g></g></g></svg>