<svg xmlns="http://www.w3.org/2000/svg" xmlns:xlink="http://www.w3.org/1999/xlink" width="69.856" height="48.834" viewBox="0 0 69.856 48.834"><defs><clipPath id="clip-path"><rect id="Rectangle_302" data-name="Rectangle 302" width="69.856" height="48.834" fill="none"></rect></clipPath></defs><g id="Group_499" data-name="Group 499" transform="translate(0 0)"><g id="Group_498" data-name="Group 498" transform="translate(0 0)" clip-path="url(#clip-path)"><path id="Path_532" data-name="Path 532" d="M15.6,27.953c-.959,1.142-3.366,3.274-5.891,1.1-2.8-2.406.37-6.191,1.93-7.059Z" transform="translate(1.69 4.326)" fill="#fff"></path><path id="Path_533" data-name="Path 533" d="M15.6,27.953c-.959,1.142-3.366,3.274-5.891,1.1-2.8-2.406.37-6.191,1.93-7.059Z" transform="translate(1.69 4.326)" fill="none" stroke="#bbbec0" stroke-miterlimit="10" stroke-width="2"></path><path id="Path_534" data-name="Path 534" d="M13.158,34.76h0a3.07,3.07,0,0,1-.6-4.489l3.6-4.288a3.421,3.421,0,1,1,5.241,4.4l-3.6,4.288c-1.21,1.442-3.2,1.3-4.642.091" transform="translate(2.327 4.87)" fill="#fff"></path><path id="Path_535" data-name="Path 535" d="M13.158,34.76h0a3.07,3.07,0,0,1-.6-4.489l3.6-4.288a3.421,3.421,0,1,1,5.241,4.4l-3.6,4.288C16.59,36.111,14.6,35.97,13.158,34.76Z" transform="translate(2.327 4.87)" fill="none" stroke="#bbbec0" stroke-miterlimit="10" stroke-width="2"></path><path id="Path_536" data-name="Path 536" d="M17.538,38.435h0a3.07,3.07,0,0,1-.6-4.489l3.6-4.288a3.421,3.421,0,1,1,5.241,4.4l-3.6,4.288c-1.21,1.442-3.2,1.3-4.642.091" transform="translate(3.188 5.593)" fill="#fff"></path><path id="Path_537" data-name="Path 537" d="M17.538,38.435h0a3.07,3.07,0,0,1-.6-4.489l3.6-4.288a3.421,3.421,0,1,1,5.241,4.4l-3.6,4.288C20.97,39.786,18.979,39.645,17.538,38.435Z" transform="translate(3.188 5.593)" fill="none" stroke="#bbbec0" stroke-miterlimit="10" stroke-width="2"></path><path id="Path_538" data-name="Path 538" d="M22.737,40.228h0c-1.225-1.028-1.631-2.5-.6-3.72l1.814-2.4A2.907,2.907,0,0,1,28.4,37.844L27.36,39.223a3.822,3.822,0,0,1-4.623,1.005" transform="translate(4.238 6.504)" fill="#fff"></path><path id="Path_539" data-name="Path 539" d="M22.737,40.228h0c-1.225-1.028-1.631-2.5-.6-3.72l1.814-2.4A2.907,2.907,0,0,1,28.4,37.844L27.36,39.223A3.822,3.822,0,0,1,22.737,40.228Z" transform="translate(4.238 6.504)" fill="none" stroke="#bbbec0" stroke-miterlimit="10" stroke-width="2"></path><path id="Path_540" data-name="Path 540" d="M35.345,14.491s-2.507,2.377-5.745,6.074c-1.495,1.705-3.159,3.445-4.7,2.807-1.493-.616-1.5-2.709-1.5-4.32a14.418,14.418,0,0,1,1.577-7.434c.979-1.732,4.29-4.891,7.831-7.02l-.127-.493A10.059,10.059,0,0,0,27.33,2.437,33.541,33.541,0,0,0,15.368,5.213L6.66,20.3A15.849,15.849,0,0,1,12,25.852l.017-.011,3.951,5.944.011.013,1.194-1.424a3.421,3.421,0,0,1,5.241,4.4,3.421,3.421,0,0,1,5.241,4.4l-2.3,2.737.095.105,1.42-1.88a2.907,2.907,0,0,1,4.454,3.737l-1.784,2.361a7.243,7.243,0,0,0,6.821.134c1.121-.546,2.387-1.674,1.508-2.4L35.8,42.432a9.943,9.943,0,0,1,2.074,1.533,4.424,4.424,0,0,0,4.763-.455,3.164,3.164,0,0,0,.853-3.6L38,35.965l5.491,3.947c1.72,1.087,4.491.451,5.368-.815s.814-2.756-.487-3.552l-7.442-5.738,7.442,5.738a3.769,3.769,0,0,0,5.037-.387c1.363-1.3,1.881-4.024-.017-5.56Z" transform="translate(1.31 0.48)" fill="#fff"></path><path id="Path_541" data-name="Path 541" d="M35.345,14.491s-2.507,2.377-5.745,6.074c-1.495,1.705-3.159,3.445-4.7,2.807-1.493-.616-1.5-2.709-1.5-4.32a14.418,14.418,0,0,1,1.577-7.434c.979-1.732,4.29-4.891,7.831-7.02l-.127-.493A10.059,10.059,0,0,0,27.33,2.437,33.541,33.541,0,0,0,15.368,5.213L6.66,20.3A15.849,15.849,0,0,1,12,25.852l.017-.011,3.951,5.944.011.013,1.194-1.424a3.421,3.421,0,0,1,5.241,4.4,3.421,3.421,0,0,1,5.241,4.4l-2.3,2.737.095.105,1.42-1.88a2.907,2.907,0,0,1,4.454,3.737l-1.784,2.361a7.243,7.243,0,0,0,6.821.134c1.121-.546,2.387-1.674,1.508-2.4L35.8,42.432a9.943,9.943,0,0,1,2.074,1.533,4.424,4.424,0,0,0,4.763-.455,3.164,3.164,0,0,0,.853-3.6L38,35.965l5.491,3.947c1.72,1.087,4.491.451,5.368-.815s.814-2.756-.487-3.552l-7.442-5.738,7.442,5.738a3.769,3.769,0,0,0,5.037-.387c1.363-1.3,1.881-4.024-.017-5.56Z" transform="translate(1.31 0.48)" fill="none" stroke="#bbbec0" stroke-miterlimit="10" stroke-width="2"></path><path id="Path_542" data-name="Path 542" d="M57.826,20.3,49.118,5.213s-7.193-2.776-12.37-2.776c-4.888,0-12.9,6.31-14.521,9.182a14.418,14.418,0,0,0-1.577,7.434c0,1.611,0,3.7,1.5,4.32,1.544.638,3.209-1.1,4.7-2.807,3.238-3.7,5.745-6.074,5.745-6.074L50.639,29.6c.012.01.018.022.03.031,3.558-3.789,3.419-8.039,7.157-9.334" transform="translate(4.061 0.48)" fill="#fff"></path><path id="Path_543" data-name="Path 543" d="M57.826,20.3,49.118,5.213s-7.193-2.776-12.37-2.776c-4.888,0-12.9,6.31-14.521,9.182a14.418,14.418,0,0,0-1.577,7.434c0,1.611,0,3.7,1.5,4.32,1.544.638,3.209-1.1,4.7-2.807,3.238-3.7,5.745-6.074,5.745-6.074L50.639,29.6c.012.01.018.022.03.031C54.227,25.841,54.088,21.59,57.826,20.3Z" transform="translate(4.061 0.48)" fill="none" stroke="#bbbec0" stroke-miterlimit="10" stroke-width="2"></path><path id="Path_544" data-name="Path 544" d="M4.8,21.819,1.109,19.687A2.228,2.228,0,0,1,.3,16.651L9.269,1.109A2.228,2.228,0,0,1,12.305.3L16,2.427a2.231,2.231,0,0,1,.814,3.036L7.837,21a2.228,2.228,0,0,1-3.036.814" transform="translate(0 0)" fill="#159794"></path><path id="Path_545" data-name="Path 545" d="M56.387,21.819l3.692-2.131a2.228,2.228,0,0,0,.814-3.036L51.919,1.109A2.228,2.228,0,0,0,48.883.3L45.191,2.427a2.229,2.229,0,0,0-.814,3.036L53.351,21a2.228,2.228,0,0,0,3.036.814" transform="translate(8.668 0)" fill="#159794"></path></g></g></svg>