<svg xmlns="http://www.w3.org/2000/svg" xmlns:xlink="http://www.w3.org/1999/xlink" id="Group_508" data-name="Group 508" width="56.905" height="45.581" viewBox="0 0 56.905 45.581"><defs><clipPath id="clip-path"><rect id="Rectangle_320" data-name="Rectangle 320" width="56.905" height="45.581" fill="none"></rect></clipPath></defs><g id="Group_507" data-name="Group 507" transform="translate(0 0)" clip-path="url(#clip-path)"><path id="Path_554" data-name="Path 554" d="M1,11.9v2.428a5.463,5.463,0,0,0,10.926,0V11.9L14.353,5h-8.5Z" transform="translate(0.138 0.691)" fill="#fff"></path><path id="Path_555" data-name="Path 555" d="M1,11.9v2.428a5.463,5.463,0,0,0,10.926,0V11.9L14.353,5h-8.5Z" transform="translate(0.138 0.691)" fill="none" stroke="#bbbec0" stroke-linecap="round" stroke-linejoin="round" stroke-width="2"></path><path id="Path_556" data-name="Path 556" d="M10.6,11.9v2.428a5.463,5.463,0,1,0,10.926,0V11.9L22.74,5H13.028Z" transform="translate(1.464 0.691)" fill="#fff"></path><path id="Path_557" data-name="Path 557" d="M10.6,11.9v2.428a5.463,5.463,0,1,0,10.926,0V11.9L22.74,5H13.028Z" transform="translate(1.464 0.691)" fill="none" stroke="#bbbec0" stroke-linecap="round" stroke-linejoin="round" stroke-width="2"></path><path id="Path_558" data-name="Path 558" d="M20.2,11.9v2.428a5.463,5.463,0,1,0,10.926,0V11.9L29.911,5h-8.5Z" transform="translate(2.79 0.691)" fill="#fff"></path><path id="Path_559" data-name="Path 559" d="M20.2,11.9v2.428a5.463,5.463,0,1,0,10.926,0V11.9L29.911,5h-8.5Z" transform="translate(2.79 0.691)" fill="none" stroke="#bbbec0" stroke-linecap="round" stroke-linejoin="round" stroke-width="2"></path><path id="Path_560" data-name="Path 560" d="M29.947,11.9v2.428a5.463,5.463,0,0,0,10.926,0V11.9L38.446,5H28.733Z" transform="translate(3.968 0.691)" fill="#fff"></path><path id="Path_561" data-name="Path 561" d="M29.947,11.9v2.428a5.463,5.463,0,0,0,10.926,0V11.9L38.446,5H28.733Z" transform="translate(3.968 0.691)" fill="none" stroke="#bbbec0" stroke-linecap="round" stroke-linejoin="round" stroke-width="2"></path><path id="Path_562" data-name="Path 562" d="M39.695,11.9v2.428a5.463,5.463,0,1,0,10.926,0V11.9L45.764,5h-8.5Z" transform="translate(5.147 0.691)" fill="#fff"></path><path id="Path_563" data-name="Path 563" d="M39.695,11.9v2.428a5.463,5.463,0,1,0,10.926,0V11.9L45.764,5h-8.5Z" transform="translate(5.147 0.691)" fill="none" stroke="#bbbec0" stroke-linecap="round" stroke-linejoin="round" stroke-width="2"></path><rect id="Rectangle_317" data-name="Rectangle 317" width="44.921" height="5.691" transform="translate(5.992)" fill="#159794"></rect><path id="Path_564" data-name="Path 564" d="M44.04,13.2a5.463,5.463,0,0,1-10.926,0,5.463,5.463,0,1,1-10.926,0,5.463,5.463,0,1,1-10.926,0A5.463,5.463,0,0,1,5.8,18.663v23.9H49.5v-23.9A5.463,5.463,0,0,1,44.04,13.2" transform="translate(0.801 1.823)" fill="#fff"></path><path id="Path_565" data-name="Path 565" d="M44.04,13.2a5.463,5.463,0,0,1-10.926,0,5.463,5.463,0,1,1-10.926,0,5.463,5.463,0,1,1-10.926,0A5.463,5.463,0,0,1,5.8,18.663v23.9H49.5v-23.9A5.463,5.463,0,0,1,44.04,13.2Z" transform="translate(0.801 1.823)" fill="none" stroke="#bbbec0" stroke-linecap="round" stroke-linejoin="round" stroke-width="2"></path><rect id="Rectangle_318" data-name="Rectangle 318" width="48.256" height="0.114" transform="translate(4.325 44.329)" fill="#fff"></rect><rect id="Rectangle_319" data-name="Rectangle 319" width="48.256" height="0.114" transform="translate(4.325 44.329)" fill="none" stroke="#bbbec0" stroke-linecap="round" stroke-linejoin="round" stroke-width="2"></rect><path id="Path_566" data-name="Path 566" d="M27.2,29.691a5.691,5.691,0,0,1,11.381,0V41.072H27.2Z" transform="translate(3.756 3.315)" fill="#fff"></path><path id="Path_567" data-name="Path 567" d="M27.2,29.691a5.691,5.691,0,0,1,11.381,0V41.072H27.2Z" transform="translate(3.756 3.315)" fill="none" stroke="#bbbec0" stroke-linecap="round" stroke-linejoin="round" stroke-width="2"></path><path id="Path_568" data-name="Path 568" d="M20.767,33.1H13.938A1.139,1.139,0,0,1,12.8,31.967V25.138A1.139,1.139,0,0,1,13.938,24h6.829A1.139,1.139,0,0,1,21.9,25.138v6.829A1.139,1.139,0,0,1,20.767,33.1" transform="translate(1.768 3.315)" fill="#159794"></path></g></svg>