<svg xmlns="http://www.w3.org/2000/svg" xmlns:xlink="http://www.w3.org/1999/xlink" width="60.54" height="59.266" viewBox="0 0 60.54 59.266"><defs><clipPath id="clip-path"><rect id="Rectangle_269" data-name="Rectangle 269" width="60.54" height="59.266" transform="translate(0 0)" fill="none"></rect></clipPath></defs><g id="Group_451" data-name="Group 451" transform="translate(0 0)"><rect id="Rectangle_267" data-name="Rectangle 267" width="17.747" height="17.747" transform="translate(41.793 1)" fill="#fff"></rect><g id="Group_450" data-name="Group 450"><g id="Group_449" data-name="Group 449" clip-path="url(#clip-path)"><rect id="Rectangle_268" data-name="Rectangle 268" width="17.747" height="17.747" transform="translate(41.793 1)" fill="none" stroke="#c8cacc" stroke-miterlimit="10" stroke-width="2"></rect><path id="Path_513" data-name="Path 513" d="M18.747,49.393a8.873,8.873,0,1,1-8.874-8.874,8.874,8.874,0,0,1,8.874,8.874" fill="#fff"></path><path id="Path_514" data-name="Path 514" d="M18.747,49.393a8.873,8.873,0,1,1-8.874-8.874A8.874,8.874,0,0,1,18.747,49.393Z" fill="none" stroke="#c8cacc" stroke-miterlimit="10" stroke-width="2"></path><path id="Path_515" data-name="Path 515" d="M37.437,49.448H19.69a.056.056,0,0,1-.056-.055.055.055,0,0,1,.056-.055H37.437a.055.055,0,0,1,.055.055A.055.055,0,0,1,37.437,49.448Z" fill="none" stroke="#c8cacc" stroke-miterlimit="10" stroke-width="2"></path><path id="Path_516" data-name="Path 516" d="M50.667,41.091a.055.055,0,0,1-.055-.055V23.288a.055.055,0,0,1,.11,0V41.036A.055.055,0,0,1,50.667,41.091Z" fill="none" stroke="#c8cacc" stroke-miterlimit="10" stroke-width="2"></path><path id="Path_517" data-name="Path 517" d="M13.909,36.6a.055.055,0,0,1-.055-.055A26.707,26.707,0,0,1,40.53,9.867a.056.056,0,0,1,0,.111A26.6,26.6,0,0,0,13.964,36.544.055.055,0,0,1,13.909,36.6Z" fill="none" stroke="#c8cacc" stroke-miterlimit="10" stroke-width="2"></path><path id="Path_518" data-name="Path 518" d="M31.891,54.994a.055.055,0,0,1-.039-.094l5.507-5.507-5.507-5.507a.055.055,0,0,1,.078-.078l5.546,5.546a.054.054,0,0,1,0,.078L31.93,54.978A.054.054,0,0,1,31.891,54.994Z" fill="none" stroke="#c8cacc" stroke-miterlimit="10" stroke-width="2"></path><path id="Path_519" data-name="Path 519" d="M56.213,28.889a.054.054,0,0,1-.039-.016l-5.507-5.507L45.16,28.873a.056.056,0,0,1-.078,0,.054.054,0,0,1,0-.078l5.546-5.546a.054.054,0,0,1,.078,0L56.252,28.8a.055.055,0,0,1-.039.094Z" fill="none" stroke="#c8cacc" stroke-miterlimit="10" stroke-width="2"></path><path id="Path_520" data-name="Path 520" d="M13.909,36.6l-.014,0a.054.054,0,0,1-.034-.025L9.94,29.779a.056.056,0,0,1,.02-.076.055.055,0,0,1,.075.02l3.9,6.745,6.744-3.894a.053.053,0,0,1,.076.019.056.056,0,0,1-.02.076l-6.793,3.922A.046.046,0,0,1,13.909,36.6Z" fill="none" stroke="#c8cacc" stroke-miterlimit="10" stroke-width="2"></path><path id="Path_521" data-name="Path 521" d="M59.485,49.393a8.874,8.874,0,1,1-8.874-8.874,8.874,8.874,0,0,1,8.874,8.874" fill="#08a6a5"></path></g></g></g></svg>