<svg xmlns="http://www.w3.org/2000/svg" width="14.208" height="13.494" viewBox="0 0 14.208 13.494"><g id="Group_49" data-name="Group 49" transform="translate(-1381.383 -17.408)"><g id="Path_6" data-name="Path 6" transform="translate(1381.383 17.408)" fill="none"><path d="M5.94,0A5.94,5.94,0,1,1,0,5.94,5.94,5.94,0,0,1,5.94,0Z" stroke="none"></path><path d="M 5.940217971801758 0.9999980926513672 C 3.216168403625488 0.9999980926513672 0.9999980926513672 3.216168403625488 0.9999980926513672 5.940217971801758 C 0.9999980926513672 8.664268493652344 3.216168403625488 10.88043785095215 5.940217971801758 10.88043785095215 C 8.664268493652344 10.88043785095215 10.88043785095215 8.664268493652344 10.88043785095215 5.940217971801758 C 10.88043785095215 3.216168403625488 8.664268493652344 0.9999980926513672 5.940217971801758 0.9999980926513672 M 5.940217971801758 -1.9073486328125e-06 C 9.220908164978027 -1.9073486328125e-06 11.88043785095215 2.659527778625488 11.88043785095215 5.940217971801758 C 11.88043785095215 9.220908164978027 9.220908164978027 11.88043785095215 5.940217971801758 11.88043785095215 C 2.659527778625488 11.88043785095215 -1.9073486328125e-06 9.220908164978027 -1.9073486328125e-06 5.940217971801758 C -1.9073486328125e-06 2.659527778625488 2.659527778625488 -1.9073486328125e-06 5.940217971801758 -1.9073486328125e-06 Z" stroke="none" fill="#fff"></path></g><path id="Path_7" data-name="Path 7" d="M1389.324,24.8l3.153,3.153" transform="translate(2.407 2.241)" fill="none" stroke="#fff" stroke-linecap="round" stroke-linejoin="round" stroke-width="1"></path></g></svg>