<svg xmlns="http://www.w3.org/2000/svg" xmlns:xlink="http://www.w3.org/1999/xlink" id="Component_26_1" data-name="Component 26 &#x2013; 1" width="146" height="146" viewBox="0 0 146 146"><defs><clipPath id="clip-path"><rect id="Rectangle_282" data-name="Rectangle 282" width="83.547" height="83.509" fill="none" stroke="#fff" stroke-linecap="round" stroke-width="4"></rect></clipPath></defs><circle id="Ellipse_136" data-name="Ellipse 136" cx="73" cy="73" r="73" fill="#08a6a5"></circle><g id="Group_505" data-name="Group 505" transform="translate(31.453 31.246)"><g id="Group_504" data-name="Group 504" transform="translate(0 0)" clip-path="url(#clip-path)"><path id="Path_537" data-name="Path 537" d="M79.68,24.94H79.6l-.165.083v.083a39.789,39.789,0,0,1-67.9,28.124L3.747,45.445H14.481l.167-.083v-.083l-.083-.165H3.347l-.1.048h-.02l0,.012-.045.022v.113l-.01.028.01.01V56.413l.083.167h.083l.165-.083L3.43,45.6,11.3,53.464a40.151,40.151,0,0,0,56.718,0A39.84,39.84,0,0,0,79.763,25.107Z" transform="translate(2.116 16.65)" fill="none" stroke="#fff" stroke-linecap="round" stroke-linejoin="round" stroke-width="4"></path><path id="Path_538" data-name="Path 538" d="M41.106,1.332A39.5,39.5,0,0,1,69.23,12.963l7.786,7.784H66.282l-.167.082v.083l.083.167H77.416l.1-.048h.02l0-.012L77.583,21v-.112l.01-.03-.01-.01V9.78L77.5,9.613h-.083l-.165.083.082,10.9-7.868-7.866A40.106,40.106,0,0,0,1,41.087l.083.165h.083l.165-.082v-.083A39.744,39.744,0,0,1,41.106,1.332Z" transform="translate(0.668 0.667)" fill="none" stroke="#fff" stroke-linecap="round" stroke-linejoin="round" stroke-width="4"></path><path id="Path_539" data-name="Path 539" d="M48.8,30.033a15.8,15.8,0,0,1,0,6.957l0-.005,4.276,3.355a21.1,21.1,0,0,1-4.1,7.082L43.927,45.4a16.072,16.072,0,0,1-6.01,3.489h0l-.77,5.383a20.9,20.9,0,0,1-8.175,0l-.77-5.383A16.066,16.066,0,0,1,22.2,45.4l-5.049,2.028a21.074,21.074,0,0,1-4.1-7.082l4.276-3.355v.005a15.832,15.832,0,0,1,0-6.957v0L13.05,26.678a21.083,21.083,0,0,1,4.1-7.081L22.2,21.625A16.066,16.066,0,0,1,28.2,18.137l.77-5.383a20.9,20.9,0,0,1,8.175,0l.77,5.383h0a16.059,16.059,0,0,1,6.01,3.489l5.05-2.028a21.111,21.111,0,0,1,4.1,7.081L48.8,30.035Z" transform="translate(8.712 8.245)" fill="none" stroke="#fff" stroke-linecap="round" stroke-linejoin="round" stroke-width="4"></path><circle id="Ellipse_138" data-name="Ellipse 138" cx="8.061" cy="8.061" r="8.061" transform="translate(33.712 33.693)" fill="none" stroke="#fff" stroke-linecap="round" stroke-linejoin="round" stroke-width="4"></circle></g></g></svg>