<svg xmlns="http://www.w3.org/2000/svg" xmlns:xlink="http://www.w3.org/1999/xlink" width="146" height="146" viewBox="0 0 146 146"><defs><clipPath id="clip-path"><rect id="Rectangle_281" data-name="Rectangle 281" width="86.375" height="80.283" fill="none" stroke="#fff" stroke-linecap="round" stroke-width="4"></rect></clipPath></defs><g id="Group_510" data-name="Group 510" transform="translate(-167 -1640)"><circle id="Ellipse_112" data-name="Ellipse 112" cx="73" cy="73" r="73" transform="translate(167 1640)" fill="#08a6a5"></circle><g id="Group_503" data-name="Group 503" transform="translate(196.625 1672.358)"><g id="Group_502" data-name="Group 502" transform="translate(0 0)" clip-path="url(#clip-path)"><path id="Path_533" data-name="Path 533" d="M23.172,31.95a1.523,1.523,0,1,1-1.524-1.524A1.524,1.524,0,0,1,23.172,31.95Z" transform="translate(21.538 32.558)" fill="none" stroke="#fff" stroke-linecap="round" stroke-linejoin="round" stroke-width="4"></path><line id="Line_61" data-name="Line 61" y1="3.045" transform="translate(43.187 66.03)" fill="none" stroke="#fff" stroke-linecap="round" stroke-linejoin="round" stroke-width="4"></line><rect id="Rectangle_280" data-name="Rectangle 280" width="33.503" height="24.365" rx="2.207" transform="translate(26.436 53.848)" fill="none" stroke="#fff" stroke-linecap="round" stroke-linejoin="round" stroke-width="4"></rect><path id="Path_534" data-name="Path 534" d="M15.713,37.033V26.372a10.66,10.66,0,0,1,21.32,0" transform="translate(16.815 16.814)" fill="none" stroke="#fff" stroke-linecap="round" stroke-linejoin="round" stroke-width="4"></path><path id="Path_535" data-name="Path 535" d="M8.356,34.246a25.889,25.889,0,1,1,51.777,0" transform="translate(8.942 8.942)" fill="none" stroke="#fff" stroke-linecap="round" stroke-linejoin="round" stroke-width="4"></path><path id="Path_536" data-name="Path 536" d="M1,42.117a41.117,41.117,0,0,1,82.235,0" transform="translate(1.07 1.071)" fill="none" stroke="#fff" stroke-linecap="round" stroke-linejoin="round" stroke-width="4"></path></g></g></g></svg>