<svg xmlns="http://www.w3.org/2000/svg" xmlns:xlink="http://www.w3.org/1999/xlink" width="146" height="146" viewBox="0 0 146 146"><defs><clipPath id="clip-path"><rect id="Rectangle_286" data-name="Rectangle 286" width="76" height="73" transform="translate(0 -0.025)" fill="none" stroke="#fff" stroke-width="4"></rect></clipPath></defs><g id="Group_511" data-name="Group 511" transform="translate(-223 -2176)"><circle id="Ellipse_137" data-name="Ellipse 137" cx="73" cy="73" r="73" transform="translate(223 2176)" fill="#08a6a5"></circle><g id="Group_507" data-name="Group 507" transform="translate(258 2213.025)"><g id="Group_506" data-name="Group 506" clip-path="url(#clip-path)"><path id="Path_540" data-name="Path 540" d="M54.638,6.819A5.819,5.819,0,0,0,43,6.819V9.728H54.638Z" transform="translate(19.552 0.455)" fill="none" stroke="#fff" stroke-linecap="round" stroke-linejoin="round" stroke-width="4"></path><path id="Path_541" data-name="Path 541" d="M56.279,51.728H6.819A5.819,5.819,0,0,1,1,45.909V43H50.46v2.909A5.819,5.819,0,0,0,56.279,51.728Z" transform="translate(0.455 19.552)" fill="none" stroke="#fff" stroke-linecap="round" stroke-linejoin="round" stroke-width="4"></path><path id="Path_542" data-name="Path 542" d="M15.728,1A8.754,8.754,0,0,0,7,9.728V62.1H47.732v2.909a5.819,5.819,0,1,0,11.638,0V6.819A5.819,5.819,0,0,1,65.188,1Z" transform="translate(3.183 0.455)" fill="none" stroke="#fff" stroke-linecap="round" stroke-linejoin="round" stroke-width="4"></path><rect id="Rectangle_283" data-name="Rectangle 283" width="7.274" height="14.547" transform="translate(32.731 34.185)" fill="none" stroke="#fff" stroke-linecap="round" stroke-linejoin="round" stroke-width="4"></rect><rect id="Rectangle_284" data-name="Rectangle 284" width="7.274" height="8.728" transform="translate(19.638 40.004)" fill="none" stroke="#fff" stroke-linecap="round" stroke-linejoin="round" stroke-width="4"></rect><rect id="Rectangle_285" data-name="Rectangle 285" width="7.274" height="11.638" transform="translate(45.823 37.095)" fill="none" stroke="#fff" stroke-linecap="round" stroke-linejoin="round" stroke-width="4"></rect><circle id="Ellipse_139" data-name="Ellipse 139" cx="3.637" cy="3.637" r="3.637" transform="translate(19.638 24.003)" fill="none" stroke="#fff" stroke-linecap="round" stroke-linejoin="round" stroke-width="4"></circle><circle id="Ellipse_140" data-name="Ellipse 140" cx="3.637" cy="3.637" r="3.637" transform="translate(32.731 18.184)" fill="none" stroke="#fff" stroke-linecap="round" stroke-linejoin="round" stroke-width="4"></circle><circle id="Ellipse_141" data-name="Ellipse 141" cx="3.637" cy="3.637" r="3.637" transform="translate(45.823 21.093)" fill="none" stroke="#fff" stroke-linecap="round" stroke-linejoin="round" stroke-width="4"></circle><path id="Path_543" data-name="Path 543" d="M27.463,15.493c-.01.048-.029.093-.041.14l6,1.334c.01-.048.029-.092.041-.14Z" transform="translate(12.469 7.045)" fill="none" stroke="#fff" stroke-linecap="round" stroke-linejoin="round" stroke-width="4"></path><path id="Path_544" data-name="Path 544" d="M18.257,18.839c.02.045.049.084.068.129L24.781,16.1c-.02-.045-.049-.084-.068-.129Z" transform="translate(8.301 7.262)" fill="none" stroke="#fff" stroke-linecap="round" stroke-linejoin="round" stroke-width="4"></path></g></g></g></svg>