<svg xmlns="http://www.w3.org/2000/svg" xmlns:xlink="http://www.w3.org/1999/xlink" width="146" height="146" viewBox="0 0 146 146"><defs><clipPath id="clip-path"><rect id="Rectangle_304" data-name="Rectangle 304" width="80" height="88" transform="translate(-4 -4.075)" fill="none"></rect></clipPath></defs><g id="Group_552" data-name="Group 552" transform="translate(-16418 -6938)"><circle id="Ellipse_158" data-name="Ellipse 158" cx="73" cy="73" r="73" transform="translate(16418 6938)" fill="#40c8e4"></circle><g id="Group_548" data-name="Group 548" transform="translate(16458 6973.075)"><g id="Group_547" data-name="Group 547" clip-path="url(#clip-path)"><path id="Path_683" data-name="Path 683" d="M56.131,222.827a14.264,14.264,0,0,1-7.981-2.675,22.327,22.327,0,0,1-7.545-9.838A1.3,1.3,0,1,1,43,209.287c3.455,8.062,9.049,10.934,13.132,10.934s9.676-2.872,13.132-10.934a1.3,1.3,0,1,1,2.395,1.026,22.327,22.327,0,0,1-7.545,9.838,14.264,14.264,0,0,1-7.981,2.675" transform="translate(-33.905 -174.548)" fill="#fff"></path><path id="Path_684" data-name="Path 684" d="M56.131,222.827a14.264,14.264,0,0,1-7.981-2.675,22.327,22.327,0,0,1-7.545-9.838A1.3,1.3,0,1,1,43,209.287c3.455,8.062,9.049,10.934,13.132,10.934s9.676-2.872,13.132-10.934a1.3,1.3,0,1,1,2.395,1.026,22.327,22.327,0,0,1-7.545,9.838A14.264,14.264,0,0,1,56.131,222.827Z" transform="translate(-33.905 -174.548)" fill="none" stroke="#fff" stroke-width="1"></path><path id="Path_685" data-name="Path 685" d="M177.435,10.921a1.3,1.3,0,0,1-1.3-1.3c0-2.7-3.833-3.743-6.021-3.883-.944.829-3.236,2.58-5.735,2.58A3.853,3.853,0,0,1,160.5,4.408,3.853,3.853,0,0,1,164.376.5c2.547,0,4.878,1.819,5.787,2.627,3.527.171,8.574,1.99,8.574,6.492a1.3,1.3,0,0,1-1.3,1.3M164.376,3.105a1.238,1.238,0,0,0-1.27,1.3,1.238,1.238,0,0,0,1.27,1.3,6.121,6.121,0,0,0,3.213-1.3,6.121,6.121,0,0,0-3.213-1.3" transform="translate(-134.367 -0.419)" fill="#fff"></path><path id="Path_686" data-name="Path 686" d="M177.435,10.921a1.3,1.3,0,0,1-1.3-1.3c0-2.7-3.833-3.743-6.021-3.883-.944.829-3.236,2.58-5.735,2.58A3.853,3.853,0,0,1,160.5,4.408,3.853,3.853,0,0,1,164.376.5c2.547,0,4.878,1.819,5.787,2.627,3.527.171,8.574,1.99,8.574,6.492A1.3,1.3,0,0,1,177.435,10.921ZM164.376,3.105a1.238,1.238,0,0,0-1.27,1.3,1.238,1.238,0,0,0,1.27,1.3,6.121,6.121,0,0,0,3.213-1.3A6.121,6.121,0,0,0,164.376,3.105Z" transform="translate(-134.367 -0.419)" fill="none" stroke="#fff" stroke-width="1"></path><path id="Path_687" data-name="Path 687" d="M1.8,10.921a1.3,1.3,0,0,1-1.3-1.3c0-4.5,5.047-6.321,8.574-6.491C9.984,2.319,12.315.5,14.862.5a3.853,3.853,0,0,1,3.876,3.908,3.853,3.853,0,0,1-3.876,3.908c-2.5,0-4.791-1.752-5.735-2.581-2.188.14-6.021,1.182-6.021,3.883a1.3,1.3,0,0,1-1.3,1.3m9.845-6.513a6.121,6.121,0,0,0,3.213,1.3,1.238,1.238,0,0,0,1.27-1.3,1.238,1.238,0,0,0-1.27-1.3,6.121,6.121,0,0,0-3.213,1.3" transform="translate(-0.419 -0.419)" fill="#fff"></path><path id="Path_688" data-name="Path 688" d="M1.8,10.921a1.3,1.3,0,0,1-1.3-1.3c0-4.5,5.047-6.321,8.574-6.491C9.984,2.319,12.315.5,14.862.5a3.853,3.853,0,0,1,3.876,3.908,3.853,3.853,0,0,1-3.876,3.908c-2.5,0-4.791-1.752-5.735-2.581-2.188.14-6.021,1.182-6.021,3.883A1.3,1.3,0,0,1,1.8,10.921Zm9.845-6.513a6.121,6.121,0,0,0,3.213,1.3,1.238,1.238,0,0,0,1.27-1.3,1.238,1.238,0,0,0-1.27-1.3A6.121,6.121,0,0,0,11.649,4.408Z" transform="translate(-0.419 -0.419)" fill="none" stroke="#fff" stroke-width="1"></path><path id="Path_689" data-name="Path 689" d="M22.644,98a1.3,1.3,0,0,1-.84-.307c-.342-.289-8.449-7.227-14.68-21.311A79.064,79.064,0,0,1,.5,49.906,1.3,1.3,0,0,1,3.1,49.7,76.527,76.527,0,0,0,9.507,75.327,63.869,63.869,0,0,0,22.644,94.921,63.869,63.869,0,0,0,35.782,75.327,76.524,76.524,0,0,0,42.187,49.7a1.3,1.3,0,0,1,2.6.208,79.064,79.064,0,0,1-6.62,26.476C31.933,90.465,23.826,97.4,23.484,97.692a1.3,1.3,0,0,1-.84.307" transform="translate(-0.418 -40.602)" fill="#fff"></path><path id="Path_690" data-name="Path 690" d="M22.644,98a1.3,1.3,0,0,1-.84-.307c-.342-.289-8.449-7.227-14.68-21.311A79.064,79.064,0,0,1,.5,49.906,1.3,1.3,0,0,1,3.1,49.7,76.527,76.527,0,0,0,9.507,75.327,63.869,63.869,0,0,0,22.644,94.921,63.869,63.869,0,0,0,35.782,75.327,76.524,76.524,0,0,0,42.187,49.7a1.3,1.3,0,0,1,2.6.208,79.064,79.064,0,0,1-6.62,26.476C31.933,90.465,23.826,97.4,23.484,97.692A1.3,1.3,0,0,1,22.644,98Z" transform="translate(-0.418 -40.602)" fill="none" stroke="#fff" stroke-width="1"></path><path id="Path_691" data-name="Path 691" d="M356.408,232.316a3.908,3.908,0,1,1,3.908-3.908,3.912,3.912,0,0,1-3.908,3.908m0-5.21a1.3,1.3,0,1,0,1.3,1.3,1.3,1.3,0,0,0-1.3-1.3" transform="translate(-295.103 -187.945)" fill="#fff"></path><path id="Path_692" data-name="Path 692" d="M356.408,232.316a3.908,3.908,0,1,1,3.908-3.908A3.912,3.912,0,0,1,356.408,232.316Zm0-5.21a1.3,1.3,0,1,0,1.3,1.3A1.3,1.3,0,0,0,356.408,227.105Z" transform="translate(-295.103 -187.945)" fill="none" stroke="#fff" stroke-width="1"></path><path id="Path_693" data-name="Path 693" d="M329.618,210.737a9.118,9.118,0,1,1,9.118-9.118,9.129,9.129,0,0,1-9.118,9.118m0-15.631a6.513,6.513,0,1,0,6.513,6.513,6.521,6.521,0,0,0-6.513-6.513" transform="translate(-268.314 -161.156)" fill="#fff"></path><path id="Path_694" data-name="Path 694" d="M329.618,210.737a9.118,9.118,0,1,1,9.118-9.118A9.129,9.129,0,0,1,329.618,210.737Zm0-15.631a6.513,6.513,0,1,0,6.513,6.513A6.521,6.521,0,0,0,329.618,195.105Z" transform="translate(-268.314 -161.156)" fill="none" stroke="#fff" stroke-width="1"></path><path id="Path_695" data-name="Path 695" d="M150.645,295.579A22.17,22.17,0,0,1,128.5,273.434v-2.605a1.3,1.3,0,1,1,2.605,0v2.605a19.561,19.561,0,0,0,19.539,19.539,16.953,16.953,0,0,0,16.934-16.934V257.8a1.3,1.3,0,0,1,2.605,0v18.237a19.561,19.561,0,0,1-19.539,19.539" transform="translate(-107.577 -214.735)" fill="#fff"></path><path id="Path_696" data-name="Path 696" d="M150.645,295.579A22.17,22.17,0,0,1,128.5,273.434v-2.605a1.3,1.3,0,1,1,2.605,0v2.605a19.561,19.561,0,0,0,19.539,19.539,16.953,16.953,0,0,0,16.934-16.934V257.8a1.3,1.3,0,0,1,2.605,0v18.237A19.561,19.561,0,0,1,150.645,295.579Z" transform="translate(-107.577 -214.735)" fill="none" stroke="#fff" stroke-width="1"></path></g></g></g></svg>