<svg xmlns="http://www.w3.org/2000/svg" xmlns:xlink="http://www.w3.org/1999/xlink" width="146" height="146" viewBox="0 0 146 146"><defs><clipPath id="clip-path"><rect id="Rectangle_303" data-name="Rectangle 303" width="82" height="79" fill="none" stroke="#fff" stroke-width="4"></rect></clipPath></defs><g id="Group_550" data-name="Group 550" transform="translate(-15952 -6938)"><circle id="Ellipse_156" data-name="Ellipse 156" cx="73" cy="73" r="73" transform="translate(15952 6938)" fill="#40c8e4"></circle><g id="Group_546" data-name="Group 546" transform="translate(15982 6965)"><g id="Group_545" data-name="Group 545" clip-path="url(#clip-path)"><path id="Path_680" data-name="Path 680" d="M61.052,54.73c-6.734-1-8.041-6.87-15.557-7.9a19.62,19.62,0,0,0-12.889,3.161s-6.321-9.482-17.383-9.482C8.045,40.508,1,45.248,1,56.311,1,70.729,9.1,75.274,15.42,75.274a20.4,20.4,0,0,0,10.865-3.161,50.84,50.84,0,0,0,20.5,4.741c11.1,0,17.356-3.227,24.462-6.03,3.088-1.218,8.768-4.373,8.768-8.192,0-6.388-.924-17.778-3.161-23.7-1.89-5.011-12.887-25.972-14.041-26.96-2.157-1.843-7-6.234-8.8-7.807C51.816,2.234,50.508,1,48.853,1a5.282,5.282,0,0,0-3.6,1.58c-3.622,3.358-6.321,5.267-6.321,7.9,0,2.173,2.4,3.161,2.4,3.161" transform="translate(0.58 0.58)" fill="none" stroke="#fff" stroke-linecap="round" stroke-linejoin="round" stroke-width="4"></path><path id="Path_681" data-name="Path 681" d="M28.161,9a3.161,3.161,0,0,0,0,6.321h.823c3.884,0,8.658,3.161,14.98,3.161,0,0-.024,6.885,0,10.428.033,5.158-4.333,12.489-.1,20.182" transform="translate(14.508 5.223)" fill="none" stroke="#fff" stroke-linecap="round" stroke-linejoin="round" stroke-width="4"></path><path id="Path_682" data-name="Path 682" d="M26.521,10.741h6.288a2.37,2.37,0,1,0,0-4.741" transform="translate(15.39 3.482)" fill="none" stroke="#fff" stroke-linecap="round" stroke-linejoin="round" stroke-width="4"></path></g></g></g></svg>