<svg xmlns="http://www.w3.org/2000/svg" xmlns:xlink="http://www.w3.org/1999/xlink" width="146" height="146" viewBox="0 0 146 146"><defs><clipPath id="clip-path"><rect id="Rectangle_292" data-name="Rectangle 292" width="93.999" height="86.712" transform="translate(-7 -5)" fill="none" stroke="#fff" stroke-width="4"></rect></clipPath></defs><g id="Group_551" data-name="Group 551" transform="translate(-16185 -6938)"><circle id="Ellipse_157" data-name="Ellipse 157" cx="73" cy="73" r="73" transform="translate(16185 6938)" fill="#40c8e4"></circle><g id="Group_549" data-name="Group 549" transform="translate(16218 6977.644)"><g id="Group_523" data-name="Group 523" clip-path="url(#clip-path)"><path id="Path_556" data-name="Path 556" d="M22.349,27.374a5.841,5.841,0,0,0-8.235,0l-5.49,5.49A5.823,5.823,0,0,0,16.859,41.1l5.49-5.49A5.841,5.841,0,0,0,22.349,27.374Z" transform="translate(1.611 5.974)" fill="none" stroke="#fff" stroke-linecap="round" stroke-linejoin="round" stroke-width="4"></path><path id="Path_557" data-name="Path 557" d="M29.031,34.055a5.841,5.841,0,0,0-8.235,0l-5.49,5.49A5.823,5.823,0,0,0,23.54,47.78l5.49-5.49A5.841,5.841,0,0,0,29.031,34.055Z" transform="translate(3.166 7.528)" fill="none" stroke="#fff" stroke-linecap="round" stroke-linejoin="round" stroke-width="4"></path><path id="Path_558" data-name="Path 558" d="M35.713,40.737a5.841,5.841,0,0,0-8.235,0l-5.49,5.49a5.823,5.823,0,0,0,8.236,8.235l5.49-5.49A5.841,5.841,0,0,0,35.713,40.737Z" transform="translate(4.72 9.083)" fill="none" stroke="#fff" stroke-linecap="round" stroke-linejoin="round" stroke-width="4"></path><path id="Path_559" data-name="Path 559" d="M42.394,47.418h0a5.841,5.841,0,0,0-8.235,0l-5.49,5.49A5.823,5.823,0,0,0,36.9,61.143l5.49-5.49A5.841,5.841,0,0,0,42.394,47.418Z" transform="translate(6.275 10.638)" fill="none" stroke="#fff" stroke-linecap="round" stroke-linejoin="round" stroke-width="4"></path><path id="Path_560" data-name="Path 560" d="M68.079,7.837a23.294,23.294,0,0,0-32.943,0L26.9,16.072a5.823,5.823,0,1,0,8.234,8.235l8.236-8.235L68.079,40.78A23.294,23.294,0,0,0,68.079,7.837Z" transform="translate(5.864 0.236)" fill="none" stroke="#fff" stroke-linecap="round" stroke-linejoin="round" stroke-width="4"></path><path id="Path_561" data-name="Path 561" d="M41.751,13.234,64.29,35.771a5.808,5.808,0,0,1-8.213,8.213L40.409,28.317l-.023.023L56.053,44.008a5.807,5.807,0,0,1-8.212,8.212L32.173,36.552l-.023.023L47.817,52.243a5.771,5.771,0,0,1-5.68,9.664l-.016.031a5.859,5.859,0,0,0,1.591.244,5.833,5.833,0,0,0,4.435-9.632,5.842,5.842,0,0,0,8.237-8.235,5.83,5.83,0,0,0,8.1-8.359L41.756,13.229Z" transform="translate(7.48 3.078)" fill="none" stroke="#fff" stroke-linecap="round" stroke-linejoin="round" stroke-width="4"></path><path id="Path_562" data-name="Path 562" d="M40.788,7.822A23.311,23.311,0,0,0,7.827,40.793l.026-.023A23.276,23.276,0,0,1,40.762,7.845l0-.006Z" transform="translate(0.233 0.233)" fill="none" stroke="#fff" stroke-linecap="round" stroke-linejoin="round" stroke-width="4"></path></g></g></g></svg>