<?xml version="1.0" encoding="UTF-8"?><svg id="a" xmlns="http://www.w3.org/2000/svg" xmlns:xlink="http://www.w3.org/1999/xlink" viewBox="0 0 16 16"><defs><style>.c{fill:url(#b);}.d{fill:#fff;}</style><linearGradient id="b" x1="-1.04" y1="14.57" x2="17.04" y2="1.43" gradientTransform="matrix(1, 0, 0, 1, 0, 0)" gradientUnits="userSpaceOnUse"><stop offset="0" stop-color="#087985"/><stop offset="1" stop-color="#60cea8"/></linearGradient></defs><rect class="c" y="0" width="16" height="16"/><path class="d" d="M8.52,5.59c-.33,.69-1.61,1.89-3.49,2.39,0,0,.08-2.25,2.52-2.96,.02,0,.25-.06,.49-.06,.22,0,.43,.05,.51,.22,.06,.13,.04,.26-.03,.41m2.11,1.15c.42-.76,.48-1.59,.18-2.4-.54-1.41-2.08-2.07-3.83-1.64-2.43,.59-4.79,3.07-4.35,6.5,.22,1.71,.92,2.93,2.09,3.63,.68,.4,1.49,.6,2.41,.6,.98,0,2.09-.24,3.3-.68,.41-.15,1.13-.5,1.7-.84,0,0,.54-.35,.73-.46,.29-.18,.93-.62,1.15-.77l-1.88-1.67c-.85,.61-2,1.3-2.56,1.52-1.6,.6-2.91,.72-3.61,.26-.36-.24-.45-.42-.45-.41,2.2-.82,4.16-1.9,5.13-3.62"/></svg>